<svg width="65" height="35" viewBox="0 0 65 35" fill="none" xmlns="http://www.w3.org/2000/svg">
<path d="M17.0749 34.1512C23.7768 34.1512 29.5732 30.2601 32.3661 24.627C35.1603 30.2601 40.956 34.1512 47.6587 34.1512C57.075 34.1512 64.7335 26.4927 64.7335 17.0756C64.7335 7.65852 57.075 0 47.6587 0C40.9567 0 35.1603 3.89112 32.3661 9.52425C29.5732 3.89112 23.7775 0 17.0749 0C7.65853 0 0 7.65852 0 17.0756C0 26.4927 7.65853 34.1512 17.0749 34.1512ZM47.6579 4.31619C54.6943 4.31619 60.4174 10.0392 60.4174 17.0763C60.4174 24.1134 54.6943 29.8365 47.6579 29.8365C40.623 29.8365 34.8985 24.1134 34.8985 17.0763C34.8985 10.0392 40.623 4.31619 47.6579 4.31619ZM17.0749 4.31619C24.1098 4.31619 29.8343 10.0392 29.8343 17.0763C29.8343 24.1134 24.1098 29.8365 17.0749 29.8365C10.0385 29.8365 4.31547 24.1134 4.31547 17.0763C4.31547 10.0392 10.0378 4.31619 17.0749 4.31619Z" fill="black"/>
</svg>
